# xmcd CD database file
#
# Track frame offsets:
#	150
#	17006
#	34045
#	51445
#	68086
#	88934
#	106827
#	124534
#	140086
#	153690
#	172889
#	229064
#	275563
#	327960
#
# Disc length: 5081 seconds
#
# Revision: 2
# Processed by: cddbd v1.5.1PL2 Copyright (c) Steve Scherf et al.
# Submitted via: CDex 1.51
#
DISCID=c113d70e
DTITLE=Oingo Boingo - Only a lad
DYEAR=1981
DGENRE=Rock
TTITLE0=OINGO BOINGO - Little Girls
TTITLE1=OINGO BOINGO - Perfect System
TTITLE2=OINGO BOINGO - On The Outside
TTITLE3=OINGO BOINGO - Capitalism
TTITLE4=OINGO BOINGO - You Really Got Me
TTITLE5=OINGO BOINGO - Only A Lad
TTITLE6=OINGO BOINGO - What You See
TTITLE7=OINGO BOINGO - Controller
TTITLE8=OINGO BOINGO - Imposter
TTITLE9=OINGO BOINGO - Nasty Habits
TTITLE10=Archie SHEPP - Lush Life
TTITLE11=Archie SHEPP -  U-jamaa
TTITLE12=Archie SHEPP - Crucificado
TTITLE13=Archie SHEPP - Miss Toni
EXTD=YEAR: 1981
EXTT0=
EXTT1=
EXTT2=
EXTT3=
EXTT4=
EXTT5=
EXTT6=
EXTT7=
EXTT8=
EXTT9=
EXTT10=
EXTT11=
EXTT12=
EXTT13=
PLAYORDER=
